<?xml version="1.0" encoding="UTF-8" standalone="no"?>
<svg
   xmlns:dc="http://purl.org/dc/elements/1.1/"
   xmlns:cc="http://creativecommons.org/ns#"
   xmlns:rdf="http://www.w3.org/1999/02/22-rdf-syntax-ns#"
   xmlns:svg="http://www.w3.org/2000/svg"
   xmlns="http://www.w3.org/2000/svg"
   xmlns:sodipodi="http://sodipodi.sourceforge.net/DTD/sodipodi-0.dtd"
   xmlns:inkscape="http://www.inkscape.org/namespaces/inkscape"
   id="_图层_1"
   viewBox="0 0 500 500"
   version="1.1"
   sodipodi:docname="Insta360 Logo - Symbol  -  Black&amp;transparent  -  Online.svg"
   inkscape:version="0.92.5 (2060ec1f9f, 2020-04-08)">
  <metadata
     id="metadata11">
    <rdf:RDF>
      <cc:Work
         rdf:about="">
        <dc:format>image/svg+xml</dc:format>
        <dc:type
           rdf:resource="http://purl.org/dc/dcmitype/StillImage" />
      </cc:Work>
    </rdf:RDF>
  </metadata>
  <defs
     id="defs9" />
  <sodipodi:namedview
     pagecolor="#ffffff"
     bordercolor="#666666"
     borderopacity="1"
     objecttolerance="10"
     gridtolerance="10"
     guidetolerance="10"
     inkscape:pageopacity="0"
     inkscape:pageshadow="2"
     inkscape:window-width="1920"
     inkscape:window-height="958"
     id="namedview7"
     showgrid="false"
     inkscape:zoom="0.472"
     inkscape:cx="805.78927"
     inkscape:cy="237.20772"
     inkscape:window-x="0"
     inkscape:window-y="27"
     inkscape:window-maximized="1"
     inkscape:current-layer="_图层_1" />
  <path
     d="m 323.70971,180.50518 c -22.75475,-22.75474 -52.89644,-35.26429 -84.80134,-35.26429 -31.9049,0 -62.2693,12.49098 -85.02405,35.04156 -46.86437,46.86438 -47.08711,122.961 -0.22271,169.82538 22.53201,22.75475 52.89641,35.26429 84.80132,35.26429 31.9049,0 62.26931,-12.49097 85.02406,-35.04156 46.86438,-46.64166 46.86438,-122.961 0.22272,-169.82538 z m -19.41393,69.84184 c -13.60459,13.60459 -35.48701,13.38188 -49.0916,0 -13.60459,-13.60459 -13.60459,-35.487 0,-49.09159 13.60459,-13.60459 35.48701,-13.60459 49.0916,0 13.6046,13.60459 13.6046,35.70972 0,49.09159 z"
     id="path2"
     inkscape:connector-curvature="0"
     style="stroke-width:1.85601521" />
  <path
     d="m 466.38497,142.27928 c -0.47188,-0.70783 -2.59537,-5.44637 -2.83132,-5.91824 -8.98551,-20.09452 -5.6823,-44.436022 9.92929,-61.699218 0.47188,-0.235943 1.65161,-1.651604 2.35943,-2.359434 0.47189,-0.471886 0.70783,-0.943773 1.17971,-1.415659 3.06727,-5.210419 2.59539,-12.052778 -1.88753,-16.555367 l -0.4719,-0.471886 c -1.17971,-0.943773 -2.35943,-1.651603 -3.77508,-2.359433 l -1.41566,-0.707832 C 389.80167,8.951576 298.78649,-3.3371447 212.25423,13.906388 c -2.35944,0.471887 -4.24698,0.943774 -7.09796,1.41566 -8.51363,1.887549 -11.34494,2.831322 -16.79131,4.246982 C 149.35564,30.206147 112.23388,50.772549 81.738191,81.504183 4.8992748,158.34309 -9.512936,273.93572 38.953782,365.18683 c 0.471892,0.94378 2.123494,4.01104 2.595372,4.71888 7.805803,19.85857 4.011037,43.25629 -11.580885,59.81165 -0.471892,0.47189 -1.415663,1.65161 -1.415663,1.65161 -5.210415,5.21042 -5.210415,13.94033 0,19.15074 1.179725,1.17972 2.595373,2.12349 4.011037,3.06727 h 0.235953 c 77.782674,40.66091 166.438424,53.42152 251.063464,37.82959 4.95482,-0.94377 15.13971,-3.06726 15.13971,-3.06726 3.53914,-0.70783 7.09796,-1.41566 10.63711,-2.35943 41.13281,-10.16523 80.14212,-31.20352 112.28942,-63.35082 76.36703,-75.65919 91.01518,-189.60021 44.43601,-280.37945 z m -92.66678,231.2049 c -32.61919,32.38323 -75.89514,50.35426 -121.74681,50.35426 -45.85169,0 -89.12764,-17.97103 -121.74682,-50.59019 -67.145568,-67.14559 -66.909615,-176.36774 0.23594,-243.49364 32.61919,-32.383233 75.89515,-50.35426 121.74683,-50.35426 45.85167,0 89.12763,17.971027 121.7468,50.59021 67.14558,67.14557 66.90962,176.36772 -0.23594,243.49362 z"
     id="path4"
     inkscape:connector-curvature="0"
     style="stroke-width:1.96619534" />
</svg>
